<?xml version="1.0" standalone="no"?>
<!DOCTYPE svg PUBLIC "-//W3C//DTD SVG 20010904//EN"
 "http://www.w3.org/TR/2001/REC-SVG-20010904/DTD/svg10.dtd">
<svg version="1.0" xmlns="http://www.w3.org/2000/svg"
 width="250.000000pt" height="157.000000pt" viewBox="0 0 250.000000 157.000000"
 preserveAspectRatio="xMidYMid meet">

<g transform="translate(0.000000,157.000000) scale(0.100000,-0.100000)"
fill="#000000" stroke="none">
<path d="M1086 1558 c-206 -18 -460 -85 -610 -160 -177 -89 -341 -235 -408
-364 -120 -229 -78 -453 122 -655 125 -127 254 -205 450 -274 223 -77 512
-115 742 -95 413 34 740 166 940 379 236 250 236 542 0 792 -75 80 -187 162
-298 217 -157 79 -403 142 -629 161 -135 12 -168 12 -309 -1z m468 -58 c276
-47 504 -156 661 -314 76 -77 112 -134 102 -160 -22 -55 -260 -102 -650 -127
-204 -13 -851 -7 -1017 10 -256 26 -420 63 -455 100 -25 29 -15 57 52 136 251
298 788 444 1307 355z m156 -831 c377 -22 584 -65 607 -125 10 -26 -26 -82
-102 -159 -159 -163 -395 -272 -691 -321 -156 -26 -418 -24 -578 5 -320 57
-586 199 -723 385 -64 87 -57 129 26 164 73 32 215 53 411 62 213 9 810 3
1050 -11z"/>
</g>
</svg>
